<svg xmlns="http://www.w3.org/2000/svg" width="220" height="56" viewBox="0 0 220 56" role="img" aria-labelledby="title desc">
  <title id="title">Re pseudo</title>
  <desc id="desc">Re pseudo wordmark with a stylized R and verification spark.</desc>
  <rect x="1" y="1" width="54" height="54" rx="14" fill="#261b22" stroke="#5a3d48" stroke-width="2" />
  <path
    d="M14 15h17.4c6.4 0 11.1 4.1 11.1 10.1 0 4.2-2.3 7.5-6 9.2L44 44H33.9l-6.4-8.1h-4.8V44H14V15Zm8.7 7.5v6.4h8.2c2 0 3.3-1.2 3.3-3.2s-1.3-3.2-3.3-3.2h-8.2Z"
    fill="#e2e8f0"
  />
  <path d="M40.5 11 45 6.5 49.5 11 45 15.5 40.5 11Z" fill="#f6ad55" />
  <path d="m39 42.5 3.4-3.4 5 5-3.4 3.4-5-5Z" fill="#f6ad55" />
  <circle cx="45" cy="11" r="1.7" fill="#261b22" />
  <text
    x="68"
    y="26"
    fill="#f7fafc"
    font-family="Arial, Helvetica, sans-serif"
    font-size="22"
    font-weight="700"
    letter-spacing="0"
  >
    Re
  </text>
  <text
    x="99"
    y="26"
    fill="#cbd5e0"
    font-family="Arial, Helvetica, sans-serif"
    font-size="22"
    font-weight="700"
    letter-spacing="0"
  >
    pseudo
  </text>
  <path d="M69 36h116" stroke="#5a3d48" stroke-width="2" stroke-linecap="round" />
  <path d="M155 36h30" stroke="#f6ad55" stroke-width="2" stroke-linecap="round" />
  <text
    x="69"
    y="48"
    fill="#a0aec0"
    font-family="Arial, Helvetica, sans-serif"
    font-size="10"
    font-weight="600"
    letter-spacing="0"
  >
    claim review catalog
  </text>
</svg>
